<?xml version="1.0" standalone="no"?>
<!DOCTYPE svg PUBLIC "-//W3C//DTD SVG 20010904//EN"
 "http://www.w3.org/TR/2001/REC-SVG-20010904/DTD/svg10.dtd">
<svg version="1.0" xmlns="http://www.w3.org/2000/svg"
 width="260.000000pt" height="260.000000pt" viewBox="0 0 260.000000 260.000000"
 preserveAspectRatio="xMidYMid meet">
<metadata>
Created by potrace 1.11, written by Peter Selinger 2001-2013
</metadata>
<g transform="translate(0.000000,260.000000) scale(0.100000,-0.100000)"
fill="#000000" stroke="none">
<path d="M1036 2340 c-16 -5 -11 -11 28 -34 63 -37 108 -106 100 -153 -13 -82
-82 -213 -212 -403 -138 -202 -213 -292 -390 -467 -152 -150 -156 -171 -20
-103 126 64 268 160 383 258 79 68 239 228 298 300 33 39 61 72 63 72 2 0 23
-14 46 -30 59 -43 106 -54 160 -36 118 39 306 81 316 71 24 -23 -142 -346
-286 -555 -252 -368 -633 -734 -969 -929 -50 -29 -71 -46 -67 -56 4 -10 11
-12 22 -6 10 5 22 9 27 10 17 2 108 33 170 58 266 109 506 260 714 448 49 45
200 198 228 232 68 81 95 117 150 195 34 48 107 161 162 250 69 112 115 175
145 201 53 44 67 87 43 133 -21 40 -92 115 -150 158 -69 51 -101 54 -181 17
-64 -30 -202 -63 -316 -75 -166 -19 -165 -21 -85 83 79 102 84 135 31 197 -38
44 -154 114 -239 144 -62 22 -141 31 -171 20z"/>
</g>
</svg>
